<?xml version="1.0" standalone="no"?>
<!DOCTYPE svg PUBLIC "-//W3C//DTD SVG 20010904//EN"
 "http://www.w3.org/TR/2001/REC-SVG-20010904/DTD/svg10.dtd">
<svg version="1.0" xmlns="http://www.w3.org/2000/svg"
 width="309.000000pt" height="163.000000pt" viewBox="0 0 309.000000 163.000000"
 preserveAspectRatio="xMidYMid meet">
<metadata>
Created by potrace 1.16, written by Peter Selinger 2001-2019
</metadata>
<g transform="translate(0.000000,163.000000) scale(0.100000,-0.100000)"
fill="#000000" stroke="none">
<path d="M405 970 c-3 -5 -15 -10 -25 -10 -13 0 -22 -9 -26 -27 -3 -16 -8 -36
-10 -45 -10 -35 23 -79 133 -179 26 -23 54 -16 98 27 79 76 117 138 83 133
-47 -6 -97 30 -100 72 -2 20 -6 25 -20 21 -10 -2 -18 -8 -18 -13 0 -15 -24
-10 -50 11 -27 21 -55 26 -65 10z"/>
</g>
</svg>
