<?xml version="1.0" encoding="utf-8"?><svg viewBox="0 0 100 100" xmlns="http://www.w3.org/2000/svg" width="47px" height="47px" xmlns:xlink="http://www.w3.org/1999/xlink" style="width:100%;height:100%;background-color:rgb(255, 255, 255);animation-play-state:paused" ><g class="ldl-scale" style="transform-origin:50% 50% 0px;transform:rotate(0deg) scale(0.8);animation-play-state:paused" ><g style="animation-play-state:paused" ><g style="animation-play-state:paused" ><path fill="#e0e0e0" d="M58.447 76.212H41.553a1.187 1.187 0 0 1 0-2.374h16.893a1.187 1.187 0 0 1 .001 2.374z" style="fill:rgb(224, 224, 224);animation-play-state:paused" ></path></g>
<g style="animation-play-state:paused" ><path fill="#e0e0e0" d="M58.447 80.167H41.553a1.187 1.187 0 0 1 0-2.374h16.893a1.187 1.187 0 0 1 .001 2.374z" style="fill:rgb(224, 224, 224);animation-play-state:paused" ></path></g>
<g style="animation-play-state:paused" ><path fill="#e0e0e0" d="M58.447 84.123H41.553a1.187 1.187 0 0 1 0-2.374h16.893a1.187 1.187 0 0 1 .001 2.374z" style="fill:rgb(224, 224, 224);animation-play-state:paused" ></path></g>
<path fill="#e0e0e0" d="M54.884 90h-9.767c-.44 0-.828-.286-.959-.706l-.667-2.139a1.005 1.005 0 0 1 .959-1.304h11.102c.678 0 1.161.657.959 1.304l-.667 2.139c-.132.42-.521.706-.96.706z" style="fill:rgb(224, 224, 224);animation-play-state:paused" ></path></g>
<path fill="#f5e169" d="M70.089 47.422c0-11.522-9.7-20.779-21.38-20.048-9.786.612-17.836 8.423-18.714 18.189-.675 7.503 2.781 14.246 8.35 18.219a4.588 4.588 0 0 1 1.916 3.737v.003a4.613 4.613 0 0 0 4.613 4.613h10.25a4.613 4.613 0 0 0 4.613-4.613c0-1.461.675-2.859 1.867-3.704 5.134-3.64 8.485-9.625 8.485-16.396z" style="fill:rgb(245, 225, 105);animation-play-state:paused" ></path>
<g style="animation-play-state:paused" ><path d="M23.801 73.25l7.652-7.652" stroke-miterlimit="10" stroke-linecap="round" stroke-width="3" stroke="#f7b26a" fill="none" style="stroke:rgb(247, 178, 106);animation-play-state:paused" ></path>
<path d="M12.949 47.051h10.822" stroke-miterlimit="10" stroke-linecap="round" stroke-width="3" stroke="#f7b26a" fill="none" style="stroke:rgb(247, 178, 106);animation-play-state:paused" ></path>
<path d="M23.801 20.852l7.652 7.652" stroke-miterlimit="10" stroke-linecap="round" stroke-width="3" stroke="#f7b26a" fill="none" style="stroke:rgb(247, 178, 106);animation-play-state:paused" ></path>
<path d="M50 10v10.822" stroke-miterlimit="10" stroke-linecap="round" stroke-width="3" stroke="#f7b26a" fill="none" style="stroke:rgb(247, 178, 106);animation-play-state:paused" ></path>
<path d="M76.199 20.852l-7.652 7.652" stroke-miterlimit="10" stroke-linecap="round" stroke-width="3" stroke="#f7b26a" fill="none" style="stroke:rgb(247, 178, 106);animation-play-state:paused" ></path>
<path d="M87.051 47.051H76.229" stroke-miterlimit="10" stroke-linecap="round" stroke-width="3" stroke="#f7b26a" fill="none" style="stroke:rgb(247, 178, 106);animation-play-state:paused" ></path>
<path d="M76.199 73.25l-7.652-7.652" stroke-miterlimit="10" stroke-linecap="round" stroke-width="3" stroke="#f7b26a" fill="none" style="stroke:rgb(247, 178, 106);animation-play-state:paused" ></path></g>
<metadata xmlns:d="https://loading.io/stock/" style="animation-play-state:paused" ><d:name style="animation-play-state:paused" >idea</d:name>


<d:tags style="animation-play-state:paused" >idea,creativity,brainstorming,information,inspiration,inspire,hint,smart,bulb</d:tags>


<d:license style="animation-play-state:paused" >by</d:license>


<d:slug style="animation-play-state:paused" >bn0z4v</d:slug></metadata></g><!-- generated by https://loading.io/ --></svg>